{"title":"Funny Pics Compilation Part 5","uid":15962535,"size":165471254,"categoryP":"video","categoryS":"other","magnet":"?xt=urn:btih:19c8586bf4047a7f2d09bdcb5e84f50f7f8fdd4c&amp;dn=Funny+Pics+Compilation+Part+5&amp;tr=udp%3A%2F%2Ftracker.leechers-paradise.org%3A6969&amp;tr=udp%3A%2F%2Fzer0day.ch%3A1337&amp;tr=udp%3A%2F%2Fopen.demonii.com%3A1337&amp;tr=udp%3A%2F%2Ftracker.coppersurfer.tk%3A6969&amp;tr=udp%3A%2F%2Fexodus.desync.com%3A6969","seeders":7,"leechers":5,"uploader":"nico1899","files":3,"time":1475685616,"description":"Funny Pics Compilation Part 5\r\n\r\nScreenshots\r\n    \nhttp://picrelated.com/image/9lEVm \nhttp://picrelated.com/image/9lfA2 \nhttp://picrelated.com/image/9lxf0 \nhttp://picrelated.com/image/9laUY \nhttp://picrelated.com/image/9lwHL\r\n\r\nFormat                                   : MPEG-4\r\nFormat profile                           : Base Media / Version 2\r\nCodec ID                                 : mp42 (mp41/isom)\r\nFile size                                : 158 MiB\r\nDuration                                 : 8 min 23 s\r\nOverall bit rate                         : 2 629 kb/s\r\nEncoded date                             : UTC 2016-10-05 14:01:32\r\nTagged date                              : UTC 2016-10-05 14:01:32\r\n\r\nVideo\r\nID                                       : 1\r\nFormat                                   : AVC\r\nFormat/Info                              : Advanced Video Codec\r\nFormat profile                           :   \r\nFormat settings, CABAC                   : No\r\nFormat settings, ReFrames                : 2 frames\r\nFormat settings, GOP                     : M=1, N=30\r\nCodec ID                                 : avc1\r\nCodec ID/Info                            : Advanced Video Coding\r\nDuration                                 : 8 min 23 s\r\nSource duration                          : 8 min 23 s\r\nBit rate                                 : 2 433 kb/s\r\nWidth                                    : 1 920 pixels\r\nHeight                                   : 1 080 pixels\r\nDisplay aspect ratio                     : 16:9\r\nFrame rate mode                          : Constant\r\nFrame rate                               : 29.970 (29970/1000) FPS\r\nColor space                              : YUV\r\nChroma subsampling                       : 4:2:0\r\nBit depth                                : 8 bits\r\nScan type                                : Progressive\r\nBits/(Pixel*Frame)                       : 0.039\r\nStream size                              : 146 MiB (93%)\r\nSource stream size                       : 146 MiB (93%)\r\nEncoded date                             : UTC 2016-10-05 14:01:32\r\nTagged date                              : UTC 2016-10-05 14:01:32\r\nmdhd_Duration                            : 503603\r\n\r\nAudio\r\nID                                       : 2\r\nFormat                                   : AAC\r\nFormat/Info                              : Advanced Audio Codec\r\nFormat profile                           : LC\r\nCodec ID                                 : 40\r\nDuration                                 : 8 min 23 s\r\nBit rate mode                            : Constant\r\nBit rate                                 : 192 kb/s\r\nChannel(s)                               : 2 channels\r\nChannel positions                        : Front: L R\r\nSampling rate                            : 48.0 kHz\r\nFrame rate                               : 46.875 FPS (1024 spf)\r\nCompression mode                         : Lossy\r\nStream size                              : 11.6 MiB (7%)\r\nEncoded date                             : UTC 2016-10-05 14:01:32\r\nTagged date                              : UTC 2016-10-05 14:01:32\r\nmdhd_Duration                            : 503616","torrent":{"xt":"urn:btih:19c8586bf4047a7f2d09bdcb5e84f50f7f8fdd4c","amp;dn":"Funny+Pics+Compilation+Part+5","amp;tr":["udp%3A%2F%2Ftracker.leechers-paradise.org%3A6969","udp%3A%2F%2Fzer0day.ch%3A1337","udp%3A%2F%2Fopen.demonii.com%3A1337","udp%3A%2F%2Ftracker.coppersurfer.tk%3A6969","udp%3A%2F%2Fexodus.desync.com%3A6969"],"infoHash":"19c8586bf4047a7f2d09bdcb5e84f50f7f8fdd4c","infoHashBuffer":{"type":"Buffer","data":[25,200,88,107,244,4,122,127,45,9,189,203,94,132,245,15,127,143,221,76]},"announce":[],"urlList":[]}}